<svg width="20" height="20" viewBox="0 0 20 20" fill="none" xmlns="http://www.w3.org/2000/svg">
<g clip-path="url(#clip0_1_1644)">
<path d="M5.8335 5.83301H5.00016C4.55814 5.83301 4.13421 6.0086 3.82165 6.32116C3.50909 6.63372 3.3335 7.05765 3.3335 7.49967V14.9997C3.3335 15.4417 3.50909 15.8656 3.82165 16.1782C4.13421 16.4907 4.55814 16.6663 5.00016 16.6663H12.5002C12.9422 16.6663 13.3661 16.4907 13.6787 16.1782C13.9912 15.8656 14.1668 15.4417 14.1668 14.9997V14.1663" stroke="#D28E20" stroke-width="1.5" stroke-linecap="round" stroke-linejoin="round"/>
<path d="M16.9875 5.4875C17.3157 5.15929 17.5001 4.71415 17.5001 4.25C17.5001 3.78584 17.3157 3.3407 16.9875 3.0125C16.6593 2.68429 16.2142 2.49991 15.75 2.49991C15.2858 2.49991 14.8407 2.68429 14.5125 3.0125L7.5 10V12.5H10L16.9875 5.4875Z" stroke="#D28E20" stroke-width="1.5" stroke-linecap="round" stroke-linejoin="round"/>
<path d="M13.3335 4.16699L15.8335 6.66699" stroke="#D28E20" stroke-width="1.5" stroke-linecap="round" stroke-linejoin="round"/>
</g>
<defs>
<clipPath id="clip0_1_1644">
<rect width="20" height="20" fill="white"/>
</clipPath>
</defs>
</svg>
