<svg width="16" height="16" viewBox="0 0 16 16" fill="none" xmlns="http://www.w3.org/2000/svg">
<path d="M8 0C4.77256 0 2.15625 2.61794 2.15625 5.84691C2.15625 9.40169 4.59194 10.2393 5.86984 12.4188C7.05953 14.447 7.0605 16 8 16C8.97428 16 8.91278 14.5533 10.1302 12.4188C11.3472 10.2841 13.8438 9.40169 13.8438 5.84691C13.8438 2.61794 11.2274 0 8 0ZM8 8.08756C6.79262 8.08756 5.81381 7.10825 5.81381 5.90037C5.81381 5.29609 6.0585 4.74947 6.45422 4.3535C6.84991 3.95784 7.39631 3.71284 8 3.71284C9.20738 3.71284 10.1858 4.69216 10.1858 5.90037C10.1858 7.10825 9.20738 8.08756 8 8.08756Z" fill="#4CAF50"/>
<path d="M8.00006 0C7.8374 0 7.6764 0.00696875 7.51709 0.02C10.5185 0.26575 12.8779 2.78066 12.8779 5.84691C12.8779 9.40169 10.3813 10.2841 9.16428 12.4188C8.20009 14.1093 8.03806 15.3683 7.52831 15.8189C7.659 15.9366 7.8104 16 8.00006 16C8.97434 16 8.91284 14.5533 10.1302 12.4188C11.3472 10.2841 13.8438 9.40169 13.8438 5.84691C13.8438 2.61794 11.2275 0 8.00006 0Z" fill="#43A047"/>
<path d="M6.45413 4.35359L2.61206 8.19775C2.33103 7.55734 2.15625 6.79978 2.15625 5.84697C2.15625 4.24581 2.79956 2.79522 3.84138 1.73937L6.45413 4.35359Z" fill="#F44336"/>
<path d="M9.56098 7.43166C9.94754 7.03713 10.1859 6.49673 10.1859 5.90063C10.1859 4.69241 9.20716 3.71313 7.99998 3.71313C7.3962 3.71313 6.84973 3.95804 6.4541 4.35388L10.3244 0.481445C11.7079 1.08191 12.8131 2.20235 13.3948 3.59632L9.5611 7.4321L9.56098 7.43166Z" fill="#42A5F5"/>
<path d="M10.3245 0.481445L9.99829 0.807883C11.2963 1.57376 12.2726 2.82704 12.6754 4.31626L13.3949 3.59632C12.8133 2.20232 11.708 1.08191 10.3245 0.481445Z" fill="#2196F3"/>
<path d="M9.56125 7.43178L5.34168 11.6537C4.42425 10.4973 3.24715 9.64725 2.61218 8.19775L6.45425 4.35359C6.05862 4.74944 5.81384 5.29622 5.81384 5.90034C5.81384 7.10819 6.79259 8.08747 8.00012 8.08747C8.61156 8.08747 9.16437 7.83625 9.56112 7.43134L9.56125 7.43178Z" fill="#FFC107"/>
<path d="M10.3245 0.481125L6.45418 4.35359L3.84143 1.73941C4.90106 0.665437 6.37296 0 8.00009 0C8.82615 0 9.61234 0.171625 10.3245 0.481125Z" fill="#1E88E5"/>
<path d="M8.00009 0C7.83747 0 7.67646 0.0069375 7.51718 0.02L7.51709 0.0200312C8.39311 0.0913497 9.24151 0.360628 9.99831 0.807562L10.3246 0.481125C9.61234 0.171625 8.82615 0 8.00009 0Z" fill="#1976D2"/>
</svg>
