<svg width="16" height="16" viewBox="0 0 16 16" fill="none" xmlns="http://www.w3.org/2000/svg">
<path d="M1.41864 10.4887C1.11449 8.51165 0.810337 6.5347 0.506187 4.5577C0.438737 4.11945 0.937387 3.82055 1.29209 4.0866C2.23969 4.7973 3.18724 5.50795 4.13484 6.21865C4.44684 6.45265 4.89134 6.3765 5.10764 6.052L7.47429 2.502C7.72439 2.12685 8.27559 2.12685 8.52569 2.502L10.8923 6.052C11.1086 6.3765 11.5531 6.4526 11.8651 6.21865C12.8127 5.50795 13.7603 4.7973 14.7079 4.0866C15.0626 3.82055 15.5612 4.11945 15.4938 4.5577C15.1897 6.5347 14.8855 8.51165 14.5814 10.4887H1.41864Z" fill="#FFB743"/>
<path d="M13.8951 13.7793H2.10489C1.72589 13.7793 1.41864 13.4721 1.41864 13.0931V11.5856H14.5814V13.0931C14.5813 13.4721 14.2741 13.7793 13.8951 13.7793Z" fill="#FFB743"/>
</svg>
