<svg width="28" height="25" viewBox="0 0 28 25" fill="none" xmlns="http://www.w3.org/2000/svg">
<path d="M2 3H3.74001C4.82001 3 5.67 3.93 5.58 5L4.75 14.96C4.61 16.59 5.89999 17.99 7.53999 17.99H18.19C19.63 17.99 20.89 16.81 21 15.38L21.54 7.88C21.66 6.22 20.4 4.87 18.73 4.87H5.82001" stroke="#6C757D" stroke-width="1.5" stroke-miterlimit="10" stroke-linecap="round" stroke-linejoin="round"/>
<path d="M16.25 23C16.9404 23 17.5 22.4404 17.5 21.75C17.5 21.0596 16.9404 20.5 16.25 20.5C15.5596 20.5 15 21.0596 15 21.75C15 22.4404 15.5596 23 16.25 23Z" stroke="#6C757D" stroke-width="1.5" stroke-miterlimit="10" stroke-linecap="round" stroke-linejoin="round"/>
<path d="M8.25 23C8.94036 23 9.5 22.4404 9.5 21.75C9.5 21.0596 8.94036 20.5 8.25 20.5C7.55964 20.5 7 21.0596 7 21.75C7 22.4404 7.55964 23 8.25 23Z" stroke="#6C757D" stroke-width="1.5" stroke-miterlimit="10" stroke-linecap="round" stroke-linejoin="round"/>
<path d="M9 9H21" stroke="#6C757D" stroke-width="1.5" stroke-miterlimit="10" stroke-linecap="round" stroke-linejoin="round"/>
<circle cx="22" cy="6" r="5.5" fill="#EF476F" stroke="white"/>
</svg>
